<svg width="34" height="15" viewBox="0 0 34 15" fill="none" xmlns="http://www.w3.org/2000/svg">
<path d="M7.00296 13.6109L2.49858 4.27515H0L5.17445 15.0001L17.66 12.1147L7.00296 13.6109Z" fill="url(#paint0_linear_11_10)"/>
<path d="M9.29578 11.4733L4.79155 2.1377H2.29297L7.46742 12.8626L19.953 11.4733H9.29578Z" fill="url(#paint1_linear_11_10)"/>
<path d="M32.8637 9.53355H25.0698H22.1287C21.802 9.53355 21.5372 9.26684 21.5372 8.9377C21.5372 8.60856 21.802 8.34185 22.1287 8.34185H24.889H29.787C30.1136 8.34185 30.3785 8.07515 30.3785 7.74601C30.3785 7.41701 30.1137 7.15016 29.787 7.15016H24.7082H24.3454C24.0188 7.15016 23.7539 6.88345 23.7539 6.55431C23.7539 6.22517 24.0186 5.95847 24.3454 5.95847H24.5274H25.649C25.9758 5.95847 26.2406 5.69176 26.2406 5.36262C26.2406 5.03348 25.9758 4.76677 25.649 4.76677H24.3466H18.7576H17.732C17.4053 4.76677 17.1405 4.50007 17.1405 4.17093C17.1405 3.84179 17.4053 3.57508 17.732 3.57508H18.1661H22.6804H26.816C27.1426 3.57508 27.4075 3.30837 27.4075 2.97923C27.4075 2.65024 27.1426 2.38339 26.816 2.38339H22.4996H21.233C20.9064 2.38339 20.6415 2.11653 20.6415 1.78754C20.6415 1.45855 20.9063 1.19169 21.233 1.19169H23.8041H29.5037C29.8303 1.19169 30.0953 0.924986 30.0953 0.595846C30.0953 0.266854 29.8305 0 29.5037 0H23.6235H19.6514H4.58594L9.76054 10.7249H20.2431H25.2505H32.8637C33.1904 10.7249 33.4553 10.4582 33.4553 10.1291C33.4553 9.80025 33.1904 9.53355 32.8637 9.53355Z" fill="url(#paint2_linear_11_10)"/>
<path d="M13.6486 6.84416C13.5535 6.61952 13.4121 6.4365 13.2243 6.29525C13.0364 6.15371 12.7612 6.02205 12.3986 5.90014C11.6925 5.6755 11.1332 5.42532 10.7204 5.14931C10.3078 4.87346 9.99526 4.48469 9.78294 3.98286C9.58572 3.51705 9.57209 3.13521 9.74192 2.83707C9.91159 2.53892 10.2357 2.36358 10.7146 2.31104L10.3361 1.41675H10.9925L11.3745 2.3193C11.8894 2.39148 12.3562 2.59516 12.7749 2.93065C13.1935 3.26613 13.5132 3.70139 13.7342 4.23643L13.7307 4.25724H12.5539C12.4154 3.93017 12.242 3.67778 12.0335 3.50037C11.8248 3.32296 11.6049 3.2341 11.3736 3.2341C11.1369 3.2341 10.9899 3.30274 10.9323 3.44C10.8747 3.57726 10.8941 3.75955 10.9903 3.98684C11.0818 4.20307 11.2173 4.37842 11.3966 4.51288C11.5761 4.64749 11.8572 4.77973 12.2398 4.91006C12.9501 5.15123 13.51 5.40908 13.9194 5.68361C14.3286 5.958 14.6378 6.34204 14.8466 6.8356C15.0507 7.3181 15.0666 7.70332 14.8942 7.99173C14.7218 8.28013 14.3934 8.45046 13.9093 8.50329L14.2577 9.32674H13.6013L13.2546 8.50743C12.7176 8.45474 12.2146 8.27113 11.7455 7.95645C11.2765 7.64178 10.9185 7.1795 10.6713 6.56963L10.6707 6.54882H11.8475C12.0047 6.92032 12.202 7.18659 12.4393 7.34732C12.6767 7.5082 12.9259 7.58849 13.1875 7.58849C13.4379 7.58849 13.6014 7.52148 13.6781 7.38688C13.7547 7.25242 13.7449 7.07146 13.6486 6.84416Z" fill="white"/>
<defs>
<linearGradient id="paint0_linear_11_10" x1="-2.93054e-05" y1="9.63766" x2="17.6601" y2="9.63766" gradientUnits="userSpaceOnUse">
<stop stop-color="#A78BFB"/>
<stop offset="1" stop-color="#7C38EE"/>
</linearGradient>
<linearGradient id="paint1_linear_11_10" x1="2.29292" y1="7.50015" x2="19.953" y2="7.50015" gradientUnits="userSpaceOnUse">
<stop stop-color="#A78BFB"/>
<stop offset="1" stop-color="#7C38EE"/>
</linearGradient>
<linearGradient id="paint2_linear_11_10" x1="4.58601" y1="5.36269" x2="33.4553" y2="5.36269" gradientUnits="userSpaceOnUse">
<stop stop-color="#A78BFB"/>
<stop offset="1" stop-color="#7C38EE"/>
</linearGradient>
</defs>
</svg>
